<svg id="visual" viewBox="0 0 900 600" width="900" height="600" xmlns="http://www.w3.org/2000/svg" xmlns:xlink="http://www.w3.org/1999/xlink" version="1.1"><rect x="0" y="0" width="900" height="600" fill="#eee"></rect><path d="M0 297L25 320C50 343 100 389 150 385.5C200 382 250 329 300 294.5C350 260 400 244 450 268.2C500 292.3 550 356.7 600 380.8C650 405 700 389 750 400.8C800 412.7 850 452.3 875 472.2L900 492L900 601L875 601C850 601 800 601 750 601C700 601 650 601 600 601C550 601 500 601 450 601C400 601 350 601 300 601C250 601 200 601 150 601C100 601 50 601 25 601L0 601Z" fill="#1565C0" stroke-linecap="round" stroke-linejoin="miter"></path></svg>