<svg id="visual" viewBox="0 0 900 600" width="900" height="600" xmlns="http://www.w3.org/2000/svg" xmlns:xlink="http://www.w3.org/1999/xlink" version="1.1"><rect x="0" y="0" width="900" height="600" fill="#eee"></rect><path d="M0 397L21.5 387.5C43 378 86 359 128.8 364.2C171.7 369.3 214.3 398.7 257.2 389.7C300 380.7 343 333.3 385.8 325.3C428.7 317.3 471.3 348.7 514.2 366.8C557 385 600 390 642.8 397.3C685.7 404.7 728.3 414.3 771.2 399.8C814 385.3 857 346.7 878.5 327.3L900 308L900 601L878.5 601C857 601 814 601 771.2 601C728.3 601 685.7 601 642.8 601C600 601 557 601 514.2 601C471.3 601 428.7 601 385.8 601C343 601 300 601 257.2 601C214.3 601 171.7 601 128.8 601C86 601 43 601 21.5 601L0 601Z" fill="#1565C0" stroke-linecap="round" stroke-linejoin="miter"></path></svg>